<svg width="1104.002" height="724.914" viewBox="0 0 292.101 191.8" xmlns="http://www.w3.org/2000/svg"><g style="display:inline"><path d="M0 0c-15.874 0-28.788-12.914-28.788-28.788S-15.874-57.576 0-57.576s28.788 12.914 28.788 28.788S15.874 0 0 0" style="fill:#fbc834;fill-opacity:1;fill-rule:nonzero;stroke:none" transform="matrix(1.16272 0 0 -1.16272 244.043 122.21)"/><g style="fill:#80ce51;fill-opacity:1"><path d="M0 0c-15.874 0-28.788-12.914-28.788-28.788S-15.874-57.576 0-57.576s28.788 12.914 28.788 28.788S15.874 0 0 0" style="fill:#80ce51;fill-opacity:1;fill-rule:nonzero;stroke:none" transform="matrix(1.16272 0 0 -1.16272 244.043 16.508)"/></g><path d="m0 0-45.455 45.455a6.06 6.06 0 0 1-4.285 1.774h-45.455a6.06 6.06 0 0 1-4.285-10.346l41.169-41.169-41.169-41.169a6.06 6.06 0 0 1 4.285-10.346h45.455c1.607 0 3.149.639 4.285 1.775L0-8.571A6.06 6.06 0 0 1 0 0" style="fill:#f24dae;fill-opacity:1;fill-rule:nonzero;stroke:none" transform="matrix(1.66937 0 0 -1.66937 183.618 95.532)"/></g></svg>