<?xml version="1.0" standalone="no"?>
<!DOCTYPE svg PUBLIC "-//W3C//DTD SVG 20010904//EN"
 "http://www.w3.org/TR/2001/REC-SVG-20010904/DTD/svg10.dtd">
<svg version="1.0" xmlns="http://www.w3.org/2000/svg"
 width="832.000000pt" height="832.000000pt" viewBox="0 0 832.000000 832.000000"
 preserveAspectRatio="xMidYMid meet">
<metadata>
Created by potrace 1.14, written by Peter Selinger 2001-2017
</metadata>
<g transform="translate(0.000000,832.000000) scale(0.100000,-0.100000)"
fill="#000000" stroke="none">
<path d="M92 6723 c-71 -35 -107 -121 -82 -197 9 -27 147 -172 572 -596 517
-517 559 -562 545 -578 -9 -9 -263 -265 -566 -568 -579 -580 -571 -571 -557
-644 2 -14 5 -32 5 -40 1 -8 13 -29 29 -46 56 -63 32 -61 742 -60 644 1 645 1
675 23 17 11 307 298 645 636 408 409 621 629 632 654 20 43 16 103 -9 142
-33 51 -1256 1263 -1289 1277 -27 12 -146 14 -671 14 -570 0 -642 -2 -671 -17z"/>
<path d="M3485 6721 c-58 -26 -87 -72 -89 -136 -1 -72 25 -119 84 -146 45 -22
52 -22 735 -24 680 -2 691 -2 785 -25 52 -12 99 -26 105 -31 5 -5 15 -9 23 -9
20 0 202 -92 202 -102 0 -4 6 -8 13 -8 7 0 24 -11 39 -25 15 -14 31 -25 36
-25 13 0 164 -160 204 -216 70 -99 133 -237 162 -354 89 -359 -21 -746 -283
-1000 -64 -61 -108 -100 -116 -100 -3 0 -15 -8 -26 -18 -26 -25 -161 -95 -224
-117 -27 -9 -57 -20 -65 -23 -8 -3 -19 -6 -25 -7 -5 -2 -28 -8 -50 -14 -76
-20 -172 -23 -825 -25 -467 -2 -663 -6 -682 -14 -32 -13 -67 -51 -84 -90 -8
-21 -11 -343 -12 -1271 0 -1196 1 -1244 19 -1281 25 -51 93 -93 146 -89 53 3
110 37 136 79 l22 35 0 1147 c0 631 4 1150 8 1154 4 4 272 9 595 10 323 1 607
5 632 8 51 7 250 55 265 64 6 4 16 7 23 8 36 6 248 119 324 173 93 68 199 166
263 246 22 28 42 52 45 55 15 14 110 173 134 225 98 210 132 366 130 600 -1
157 -7 204 -38 326 -22 86 -83 257 -96 269 -3 3 -12 19 -20 35 -18 37 -72 128
-80 135 -3 3 -19 25 -35 50 -47 70 -212 230 -305 296 -77 54 -278 162 -311
167 -8 2 -18 5 -24 9 -14 8 -114 36 -155 43 -19 3 -42 8 -51 11 -53 15 -147
18 -789 21 -670 3 -707 2 -745 -16z"/>
<path d="M7470 6128 c-30 -3 -66 -9 -80 -12 -14 -3 -34 -8 -45 -10 -20 -4 -70
-24 -135 -54 -177 -80 -350 -291 -398 -484 -37 -148 -32 -320 12 -443 42 -116
127 -248 203 -315 79 -70 96 -82 166 -118 141 -73 205 -87 382 -86 106 1 130
5 211 32 121 41 218 100 306 188 68 66 138 168 166 239 6 17 17 44 23 60 13
33 13 34 25 90 9 48 10 258 0 300 -53 240 -200 431 -415 539 -127 65 -283 92
-421 74z"/>
<path d="M7448 3705 c-3 -3 -21 -7 -40 -9 -121 -12 -314 -118 -414 -228 -72
-79 -92 -110 -134 -198 -39 -83 -50 -114 -56 -165 -1 -11 -7 -38 -11 -60 -9
-41 -9 -156 0 -210 37 -221 144 -393 323 -521 48 -34 129 -78 164 -89 75 -22
96 -29 100 -30 61 -18 203 -23 287 -10 67 10 196 52 246 81 74 44 81 48 140
98 129 108 223 273 256 446 15 84 6 253 -19 339 -75 262 -264 453 -530 533
-62 19 -299 36 -312 23z"/>
</g>
</svg>
